{"title":"Sangue blu (1949)","uid":12879681,"size":8984958203,"categoryP":"video","categoryS":"movies","magnet":"?xt=urn:btih:adc0ebf33b93642d330447023d6958e732288ce4&amp;dn=Sangue+blu+%281949%29&amp;tr=udp%3A%2F%2Ftracker.leechers-paradise.org%3A6969&amp;tr=udp%3A%2F%2Fzer0day.ch%3A1337&amp;tr=udp%3A%2F%2Fopen.demonii.com%3A1337&amp;tr=udp%3A%2F%2Ftracker.coppersurfer.tk%3A6969&amp;tr=udp%3A%2F%2Fexodus.desync.com%3A6969","seeders":1,"leechers":0,"uploader":"varjak28","files":2,"time":1448995653,"description":"Sangue blu (Kind hearts and coronets, 1949)\r\nFormat: Matroska\r\nFile size: 8.37 GiB\r\nDuration: 1h 45mn\r\nOverall bit rate: 11.3 Mbps\r\n\r\nVideo\r\nFormat : AVC\r\nFormat/Info: Advanced Video Codec\r\nFormat profile:   \r\nCodec ID: V_MPEG4/ISO/AVC\r\nBit rate: 9 265 Kbps\r\nWidth: 1 418 pixels\r\nHeight: 1 080 pixels\r\nDisplay aspect ratio: 4:3\r\nFrame rate mode: Constant\r\nFrame rate: 23.976 fps\r\nStream size: 6.85 GiB (82%)\r\n\r\nAudio #1\r\nFormat: DTS\r\nBit rate mode: Constant\r\nBit rate: 1 509 Kbps\r\nChannel(s): 2 channels\r\nSampling rate: 48.0 KHz\r\nStream size: 1.12 GiB (13%)\r\nLanguage: English","torrent":{"xt":"urn:btih:adc0ebf33b93642d330447023d6958e732288ce4","amp;dn":"Sangue+blu+%281949%29","amp;tr":["udp%3A%2F%2Ftracker.leechers-paradise.org%3A6969","udp%3A%2F%2Fzer0day.ch%3A1337","udp%3A%2F%2Fopen.demonii.com%3A1337","udp%3A%2F%2Ftracker.coppersurfer.tk%3A6969","udp%3A%2F%2Fexodus.desync.com%3A6969"],"infoHash":"adc0ebf33b93642d330447023d6958e732288ce4","infoHashBuffer":{"type":"Buffer","data":[173,192,235,243,59,147,100,45,51,4,71,2,61,105,88,231,50,40,140,228]},"announce":[],"urlList":[]}}